<?xml version="1.0" standalone="no"?>
<!DOCTYPE svg PUBLIC "-//W3C//DTD SVG 20010904//EN"
 "http://www.w3.org/TR/2001/REC-SVG-20010904/DTD/svg10.dtd">
<svg version="1.0" xmlns="http://www.w3.org/2000/svg"
 width="100.000000pt" height="100.000000pt" viewBox="0 0 100.000000 100.000000"
 preserveAspectRatio="xMidYMid meet">

<g transform="translate(0.000000,100.000000) scale(0.100000,-0.100000)"
fill="#000000" stroke="none">
<path d="M390 820 c0 -4 11 -11 24 -14 13 -3 40 -24 60 -47 l37 -41 -3 -159
c-3 -136 -1 -159 12 -159 13 0 15 22 12 147 -3 128 -1 146 11 133 8 -8 80 -87
160 -176 149 -165 188 -195 249 -193 l33 1 -30 7 c-45 11 -68 26 -108 71 l-37
40 0 146 c0 81 5 154 10 165 10 17 7 19 -21 19 -26 0 -29 -3 -20 -14 8 -9 11
-58 9 -151 l-3 -137 -149 167 c-82 91 -158 171 -169 177 -31 16 -77 27 -77 18z"/>
<path d="M258 771 c17 -11 32 -27 32 -35 0 -23 -128 -319 -142 -328 -8 -5 -1
-8 20 -8 18 0 31 4 28 9 -4 5 4 34 15 65 l22 56 69 0 69 0 15 -37 c36 -92 59
-134 89 -163 32 -31 95 -57 95 -39 0 5 -6 9 -14 9 -20 0 -73 55 -95 99 -10 20
-42 101 -71 181 -55 154 -81 194 -135 205 l-30 7 33 -21z m83 -139 c12 -37 24
-73 27 -79 3 -10 -13 -13 -62 -13 -36 0 -66 2 -66 4 0 19 64 165 70 161 5 -3
18 -36 31 -73z"/>
</g>
</svg>
